<?xml version="1.0" encoding="utf-8"?>
<!-- Generator: Adobe Illustrator 26.1.0, SVG Export Plug-In . SVG Version: 6.00 Build 0)  -->
<svg version="1.1" id="sharif_logo" xmlns="http://www.w3.org/2000/svg" xmlns:xlink="http://www.w3.org/1999/xlink" x="0px"
	 y="0px" viewBox="0 0 425.2 425.2" style="enable-background:new 0 0 425.2 425.2;" xml:space="preserve">
<style type="text/css">
	.st0{fill:#1967AB;}
</style>
<desc>
	This is a redesign of Sharif University of Technology&apos;s logo, which improves on existing versions. The work was performed by Hamed Amanollahi and supervised by Pooria Soltani at the International Affairs Office, Sharif University of Technology, 2021. The HEX color code of the design is #1966AB, which is the year of establishment of the university, and the color blue in Farsi (Abi).
	</desc>
<path id="outer_ring" class="st0" d="M212.6,0C330,0,425.2,95.2,425.2,212.6S330,425.2,212.6,425.2S0,330,0,212.6S95.2,0,212.6,0z
	 M418.1,212.6c0-113.5-92-205.5-205.5-205.5S7.1,99.1,7.1,212.6s92,205.5,205.5,205.5S418.1,326.1,418.1,212.6z"/>
<path id="gear" class="st0" d="M409.9,191.2c-0.5-4.7-1.2-9.4-2-14h-11h-3.4H379c-1.2-5.8-2.8-11.5-4.6-17.1l12.5-7.2l2.9-1.7
	l9.5-5.5c-1.6-4.5-3.4-8.9-5.3-13.3c-2.4-5.5-5.1-10.8-8-16l-3.2-5.6c-3.1-5.3-6.5-10.4-10.2-15.3c-2.8-3.8-5.7-7.5-8.8-11.1
	l-9.5,5.5l-3,1.7l-12.5,7.2c-3.9-4.4-8.1-8.6-12.5-12.5l7.2-12.5l1.7-3l5.5-9.5c-3.6-3.1-7.4-6-11.2-8.9c-4.8-3.5-9.8-6.8-15-9.9
	l-6.1-3.5c-5.2-2.9-10.5-5.5-15.9-7.9c-4.3-1.9-8.7-3.7-13.2-5.3l-5.5,9.6l-1.7,2.9l-7.2,12.5c-5.6-1.8-11.3-3.3-17.1-4.6V31.8v-3.4
	v-11c-4.7-0.9-9.4-1.5-14.2-2c-6.6-0.7-13.2-1.1-20-1.1H211c-6.8,0-13.5,0.4-20.1,1.1c-4.7,0.5-9.4,1.2-14,2v11v3.4v14.5
	c-5.8,1.2-11.5,2.8-17.1,4.6l-7.2-12.5l-1.7-2.9l-5.5-9.6c-4.5,1.6-8.9,3.4-13.3,5.3c-5.3,2.3-10.5,4.9-15.6,7.7l-6.5,3.7
	c-5.1,3.1-10.1,6.4-14.9,9.9c-3.8,2.8-7.5,5.7-11.1,8.8l5.5,9.5l1.7,3l7.2,12.5c-4.4,3.9-8.6,8.1-12.5,12.5l-12.5-7.2l-3-1.7
	l-9.5-5.5c-3.1,3.6-6,7.4-8.9,11.2c-3.6,4.9-7,10-10.1,15.2l-3.2,5.6c-2.9,5.2-5.6,10.6-8,16.1c-1.9,4.3-3.7,8.7-5.3,13.2l9.5,5.5
	l2.9,1.7l12.5,7.2c-1.8,5.6-3.3,11.3-4.6,17.1H31.8h-3.4h-11c-0.9,4.7-1.5,9.4-2,14.2c-0.7,7-1.1,14.1-1.1,21.3s0.4,14.4,1.1,21.4
	c0.5,4.7,1.2,9.4,2,14h11h3.4h14.5c1.2,5.8,2.8,11.5,4.6,17.1l-12.5,7.2l-2.9,1.7l-9.6,5.5c1.6,4.5,3.4,9,5.3,13.3
	c2.4,5.4,5,10.7,7.9,15.8l3.4,5.9c3.1,5.2,6.5,10.3,10.1,15.2c2.8,3.8,5.7,7.5,8.8,11.1l9.5-5.5l3-1.7l12.5-7.2
	c3.9,4.4,8.1,8.5,12.5,12.5l-7.2,12.5l-1.7,3l-5.5,9.5c3.6,3.1,7.4,6,11.2,8.9c4.8,3.5,9.7,6.8,14.8,9.8l6.3,3.7
	c5.1,2.8,10.4,5.5,15.8,7.9c4.3,1.9,8.7,3.7,13.2,5.3l5.5-9.6l1.7-2.9l7.2-12.5c5.6,1.8,11.3,3.3,17.1,4.6v14.5v3.4v11
	c4.7,0.9,9.4,1.5,14.2,2c7,0.8,14.1,1.1,21.3,1.1s14.4-0.4,21.4-1.1c4.7-0.5,9.4-1.2,14.1-2v-11v-3.4V379c5.8-1.2,11.5-2.8,17.1-4.6
	l7.2,12.5l1.7,2.9l5.5,9.6c4.5-1.6,8.9-3.4,13.3-5.3c5.4-2.4,10.7-5,15.9-7.9l6-3.4c5.2-3.1,10.2-6.5,15.1-10
	c3.8-2.8,7.5-5.7,11.1-8.8l-5.5-9.5l-1.7-3l-7.2-12.5c4.4-3.9,8.5-8.1,12.5-12.5l12.5,7.2l3,1.7l9.5,5.5c3.1-3.6,6-7.4,8.9-11.2
	c3.5-4.9,6.9-9.9,10-15.1l3.4-5.9c2.9-5.2,5.5-10.5,7.9-16c1.9-4.3,3.7-8.7,5.3-13.2l-9.6-5.5l-2.9-1.7l-12.5-7.2
	c1.8-5.6,3.3-11.3,4.6-17.1h14.5h3.4h11c0.9-4.7,1.5-9.4,2-14.2c0.7-7,1.1-14.1,1.1-21.3C411,205.4,410.6,198.2,409.9,191.2z
	 M381.4,233.9h-14.3c-0.6,4.8-1.5,9.5-2.6,14.2c-0.8,3.3-1.6,6.6-2.6,9.8c-1.4,4.6-3,9.1-4.8,13.5l12.4,7.1l12.4,7.1
	c-2.4,5.5-5,10.9-7.9,16.1c-1.1,2-2.3,4.1-3.5,6.1c-3.1,5.1-6.4,10-10,14.8l-12.4-7.1l-12.4-7.1c-3,3.8-6.1,7.5-9.4,11
	c-2.3,2.5-4.7,4.9-7.2,7.2c-3.5,3.3-7.1,6.4-10.9,9.3l7.1,12.4l7.1,12.4c-4.9,3.7-10,7.1-15.3,10.3c-1.8,1.1-3.7,2.2-5.6,3.2
	c-5.2,2.9-10.5,5.5-16,7.9l-7.1-12.4l-7.1-12.4c-4.4,1.8-9,3.4-13.6,4.8c-3.2,1-6.5,1.9-9.8,2.6c-4.6,1.1-9.3,1.9-14.1,2.6v14.3
	v14.3c-7,0.8-14.2,1.2-21.4,1.2s-14.3-0.4-21.3-1.2v-14.3v-14.3c-4.8-0.6-9.5-1.5-14.2-2.6c-3.3-0.8-6.6-1.6-9.8-2.6
	c-4.6-1.4-9.1-3-13.5-4.8l-7.1,12.4l-7.1,12.4c-5.6-2.4-11-5.1-16.2-8c-1.9-1-3.8-2.1-5.6-3.2c-5.2-3.1-10.2-6.5-15.1-10.1l7.1-12.4
	l7.2-12.4c-3.8-3-7.5-6.1-11-9.4c-2.5-2.3-4.8-4.7-7.2-7.2c-3.3-3.5-6.4-7.1-9.3-10.9l-12.4,7.1l-12.4,7.1c-3.6-4.9-7-10-10.2-15.2
	c-1.1-1.9-2.2-3.7-3.2-5.6c-2.9-5.2-5.5-10.6-7.9-16.1l12.4-7.1l12.4-7.1c-1.8-4.4-3.4-9-4.8-13.6c-1-3.2-1.9-6.5-2.6-9.8
	c-1.1-4.6-1.9-9.3-2.6-14H43.9H29.6c-0.8-7-1.2-14.2-1.2-21.4s0.4-14.3,1.2-21.3h14.3h14.3c0.7-4.8,1.5-9.5,2.6-14.2
	c0.8-3.3,1.7-6.6,2.6-9.8c1.4-4.6,3-9.1,4.8-13.5l-12.4-7.1l-12.4-7.1c2.4-5.6,5.1-11,8-16.2c1-1.9,2.1-3.8,3.2-5.6
	c3.1-5.2,6.5-10.2,10.1-15.1l12.4,7.1l12.4,7.2c2.9-3.8,6.1-7.5,9.4-11c2.3-2.5,4.7-4.9,7.2-7.2c3.5-3.3,7.1-6.4,10.9-9.3l-7.2-12.4
	l-7.1-12.4c4.9-3.6,9.9-7,15.2-10.2c1.8-1.1,3.7-2.2,5.6-3.2c5.2-2.9,10.6-5.5,16.1-7.9l7.1,12.4l7.1,12.4c4.4-1.8,9-3.4,13.6-4.8
	c3.2-1,6.5-1.9,9.8-2.6c4.6-1.1,9.3-1.9,14-2.6V43.9V29.6c7-0.8,14.2-1.2,21.4-1.2s14.3,0.4,21.3,1.2v14.3v14.3
	c4.8,0.7,9.5,1.5,14.2,2.6c3.3,0.8,6.6,1.6,9.8,2.6c4.6,1.4,9.1,3,13.5,4.8l7.1-12.4l7.1-12.4c5.5,2.4,10.9,5,16.1,7.9
	c1.9,1,3.7,2.1,5.6,3.2c5.3,3.2,10.4,6.6,15.2,10.2l-7.1,12.4l-7.1,12.4c3.8,3,7.5,6.1,11,9.4c2.5,2.3,4.9,4.7,7.2,7.2
	c3.2,3.5,6.4,7.1,9.3,10.8l12.4-7.1l12.4-7.1c3.6,4.8,6.9,9.8,10,14.9c1.2,2,2.4,4,3.5,6.1c2.9,5.2,5.5,10.5,7.8,16l-12.4,7.1
	l-12.4,7.1c1.8,4.4,3.4,9,4.8,13.6c1,3.2,1.9,6.5,2.6,9.8c1.1,4.6,1.9,9.3,2.6,14h14.3h14.3c0.8,7,1.2,14.2,1.2,21.4
	s-0.4,14.3-1.2,21.3h-14.3V233.9z"/>
<g id="text">
	<path class="st0" d="M205.9,85.2c-0.5-1.8-0.9-2.2-2.5-2.3c-1-0.1-1.6-1.1-1.3-2c0.2-0.5,0.6-0.9,0.9-1.3c1.1-0.9,3-1.7,4.4-1.9
		c2-0.2,3.8,0,5.7,1c0.4,0.2,0.7,0.4,1,0.7c1.2,1,1.2,2,0.2,3.2c-0.4,0.5-0.8,1-1.1,1.5c-0.4,0.7-0.2,1.2,0.6,1.4
		c1.4,0.4,2.8,0.4,4.2-0.1c0.4-0.1,0.7-0.5,0.9-0.8c1.1-1.1,1.9-1.1,2.8,0.2c0.8,1.1,1.9,1.6,3.2,1.8c1,0.1,1.8-0.3,2.5-1
		c1.7-1.8,2.1-1.8,3.5,0.3c0.4,0.7,0.8,1.3,1.8,1.4c0.5,0.1,0.9-0.1,1.3-0.4c2.5-2.3,5.2-4.2,8.4-5.3c3.2-1.1,6.1-0.4,8.7,1.7
		c2,1.6,2.7,3.8,2.1,6.3c-0.3,1.2-0.8,2.4-1.4,3.5c-1.3,2.3-3.3,3.1-5.8,2.7c-3.2-0.5-6.4-1-9.5-1.5c-1.4-0.2-2.9-0.6-4.3-0.8
		c-1.5-0.2-2.7-0.9-3.9-1.8c-0.2-0.2-0.7-0.3-0.9-0.2c-3,1.5-5.8,1.2-8.4-0.8c-0.5-0.4-0.9-0.5-1.5-0.1c-0.6,0.3-1.3,0.6-1.9,0.8
		c-2.4,1-4.5,0.5-6.4-1.2c-0.7-0.6-1.2-0.6-2-0.2c-1.7,0.8-3.5,1.5-5.3,2.1c-3.4,1.1-6.3-0.2-7.9-3.4c-0.4-0.8-0.9-1.7-1.4-2.6
		c-0.7-1.1-1.7-1.6-2.9-1.3c-1.8,0.3-3.4,1-4.9,2.1c-0.2,0.2-0.5,0.6-0.5,0.7c0.1,0.3,0.4,0.5,0.7,0.6c1.3,0.3,2.7,0.5,4,0.8
		c3.2,0.8,4.1,2.3,2.9,5.3c-2,5.4-5.9,8.9-11.4,10.6c-2.1,0.6-4.4,0.9-6.6,0.4c-3.4-0.7-5.8-3.4-6.1-6.9c-0.2-3.3,0-6.6,0.6-9.8
		c0.1-0.5,0.1-1.2,0.8-1.2s0.9,0.6,1,1.2s0.1,1.2,0,1.9c-0.2,2.3-0.3,4.5,0.4,6.7c0.4,1.1,1.1,1.9,2.4,2c3.6,0.5,7.2,0.2,10.4-1.6
		c1.2-0.6,2.5-1.6,3.2-2.8c0.2-0.3,0-0.5-0.6-0.6c-0.5-0.1-0.9-0.1-1.4-0.1c-3.9-0.1-5.8-3.8-4-7.2c0.8-1.5,2-2.7,3.4-3.7
		c1.6-1.1,3.3-2.1,5-3.1c2.7-1.5,5.1,0,6.2,1.8c0.5,0.8,1,1.7,1.6,2.5c1,1.4,2.3,2.2,4,2C201.3,86.3,202.3,86,205.9,85.2z
		 M236.2,88.5c0.7,0.1,1.4,0.2,1.7,0.3c3.1,0.4,6.2,0.8,9.3,1.3c0.4,0.1,0.8,0.1,1.2,0c0.7-0.1,0.8-0.4,0.5-1
		c-0.6-1-1.3-1.9-2.5-2.3c-0.8-0.2-1.7-0.4-2.5-0.4C241.5,86.5,238.5,87.5,236.2,88.5z"/>
	<path class="st0" d="M281.6,108.9c-0.4,0.2-0.8,0.2-1.1,0.4c-1.4,0.9-2.9,0.8-4.3,0.2c-1.5-0.6-2.9-1.3-4.3-2
		c-1.8-0.9-2.5-2.4-2.4-4.3c0-2.6,1-5,2.2-7.2c1.2-2.3,2.6-4.4,3.9-6.7c0.9-1.7,1.8-3.4,2.4-5.2c0.9-2.5,2.8-3.7,5-4.4
		c1.1-0.4,1.7,0.3,1.4,1.4c-0.1,0.4-0.3,0.8-0.5,1.2c-3.1,5.2-6.2,10.4-9.3,15.6c-1.2,2.1-0.9,3.5,1,4.9c1.6,1.2,3.4,2.1,5.1,3
		c1.1,0.6,1.9,0.1,1.7-1.2c-0.2-1.5-0.5-3-1-4.4c-0.6-1.7-1.3-3.4-2-5c-0.4-1.1-0.3-1.8,0.7-2.4c0.8-0.5,1.7-0.8,2.7-0.7
		c6.4,0.7,12.9,1.4,19.3,2.1c0.8,0.1,1.7,0.1,2.5,0.3c0.3,0.1,0.8,0.3,0.8,0.6c0,0.3-0.2,0.7-0.5,0.9c-1.9,1.6-4.1,1.8-6.4,1.5
		c-3.9-0.3-7.8-0.7-11.7-1c-0.2,0-0.4,0-0.6,0.1c0.2,1.3,0.6,2.5,0.6,3.7c0.1,2.4,0.3,4.8,0.2,7.1c-0.1,1.9,0.6,3.3,2.1,4.3
		c1.5,1.1,3.1,2.1,5.1,2c0.8,0,1,0.3,1,1.1c-0.1,2.3,0.9,3.2,3.2,2.8c1.5-0.3,2.1,0.4,1.8,1.8c-0.5,2.1,1,3.6,3.1,3.5
		c1.7-0.1,2.1,0.4,2,2.1c0,0.7,0.1,1.2,0.6,1.6c1.3,1.1,2.5,2.3,3.9,3.4c0.3,0.3,0.9,0.5,1.3,0.4c0.6-0.1,0.6-0.8,0.6-1.3
		c0-0.9,0-1.9-0.1-2.8c-0.1-1.1,0.2-2,1.2-2.6c0.8-0.5,1.7-1,2.5-1.4c1.3-0.6,2.1,0,1.9,1.4c-0.1,1.2-0.4,2.4-0.7,3.5
		c-0.6,2-1.6,3.7-3,5.2c-0.8,0.8-1.5,1.6-2.3,2.5c-1,1.1-2.2,1.3-3.5,0.8c-0.5-0.2-1-0.4-1.4-0.8c-1.6-1.4-3.3-2.9-4.8-4.5
		c-0.5-0.5-0.8-1.3-1.1-2.1c-0.1-0.4-0.3-0.7-0.8-0.9c-0.9-0.4-1.8-0.8-2.6-1.2c-1.2-0.7-1.9-1.8-2-3.1c0-0.6-0.2-0.7-0.8-0.8
		c-1.6-0.3-3.2-1.1-3.6-2.7c-0.4-1.2-1.1-1.6-2.1-2.1c-1.5-0.7-2.9-1.7-4.2-2.7c-1.5-1.2-2.3-2.9-2.5-4.8
		C281.7,109.9,281.7,109.5,281.6,108.9z"/>
	<path class="st0" d="M120.5,112.2c-0.3-0.7,0.2-1.6,1-1.7c3.2-0.1,5.9,0.6,8.2,3.1c0.3,0.3,0.6,0.7,0.9,1c1.9,1.8,1.9,3.9,1,6.1
		c-1.5,3.7-3.8,6.9-6.9,9.4c-0.8,0.6-1.7,1.2-2.5,1.9c-0.4,0.4-0.9,0.9-1.1,1.4c-1.4,3.9-3.8,7.2-6.2,10.5c-1.8,2.5-3.6,5-5.5,7.5
		c-2,2.7-4.6,4.8-8,5.5c-4.2,0.9-6.6-1-8.2-4.5c-0.1-0.3-0.2-0.8,0-1s0.7-0.3,1-0.2c3.4,1.4,6.2-0.1,8.5-2.3c2.2-2.1,4.1-4.6,5.9-7
		c2.4-3.1,4.6-6.4,6.9-9.6c0.3-0.4,0.2-0.6-0.1-1.1c-2.1-2.6-3.6-5.6-3.7-9c0-1.5,0.8-2.7,2.3-3.3c1.5-0.6,3.1-0.7,4.3,0.7
		c1,1.1,1.8,2.4,2.7,3.7c0.3,0.5,0.6,0.7,1.1,0.3c0.5-0.4,1.1-0.8,1.6-1.3c1.3-1.5,2.5-3,3.7-4.6c0.6-0.9,0.3-1.7-0.8-1.8
		c-0.9-0.1-1.8,0-2.6,0c-1.2,0.1-2.1-0.3-2.6-1.6C121.2,113.7,120.9,112.9,120.5,112.2z M117.4,127.2c1.2,0.1,2-0.5,2.1-1.6
		c0-0.5-1.2-1.3-2.1-1.4c-0.8,0-1.5,0.8-1.5,1.8C115.8,126.8,116.3,127.1,117.4,127.2z"/>
	<path class="st0" d="M134.1,109.8c-0.1-0.7,0.4-1.2,1.1-1.2c0.3,0,0.6,0.1,0.9,0.1c3.7,0.6,6.5-1.1,8.9-3.6
		c0.6-0.6,0.8-1.3,0.8-2.2c0-0.6,0.5-1,1.1-0.9c1.3,0.2,3.4,0.3,5.2-0.8c0.9-0.7,1.2-1.8,1.2-2.8c0-0.7,0.7-1.1,1.3-0.8
		c1.6,0.8,3,0.8,4.1,0.5c0.3-0.1,0.7-0.3,0.7-0.5c0.1-0.2-0.2-0.6-0.5-0.7c-1.3-0.5-1.2-1.5-1.1-2.6c0-0.6,0.1-1.2,0.1-1.8
		c0-0.7,0.7-1.1,1.3-0.9c0.9,0.4,1.7,0.9,2.4,1.5c2.4,2,3.1,5.7,1.6,8.4c-0.8,1.6-2.4,2.6-4.1,2.9c-0.5,0.1-1.5,0.1-2.5-0.2
		c-0.2-0.1-0.4,0.1-0.5,0.3c-0.4,1.4-1.3,2.4-2.4,3.2c-1.2,0.8-2.5,1.4-4,1.5c-0.2,0-0.6,0.2-0.6,0.3c-0.8,1.8-2.3,2.8-3.9,3.8
		c-1.3,0.7-1.2,0.7-0.9,2.1c0.8,3.1,1.1,6.3,0.9,9.6c-0.1,1.9-1,3.4-2.4,4.6c-2,1.8-4.3,2.7-6.9,3.1c-0.8,0.1-1.3-0.7-0.9-1.4
		c0.4-0.6,0.9-1.1,1.3-1.6c2.5-2.9,4.5-6.2,5.4-10c0.2-0.9,0.1-2,0-2.9s-0.9-1.7-1.8-1.8c-1.5-0.3-3-0.5-4.4-0.7
		c-0.4-0.1-0.8-0.4-0.8-0.8C134.5,112.2,134.3,111,134.1,109.8z"/>
	<path class="st0" d="M332.9,149.7c-0.3,1.8-1.3,3.3-2.7,4.6c-1.3,1.1-2.8,1.9-4.4,2.5c-1.3,0.5-2.5,0.3-3.7-0.4
		c-2.5-1.4-4.5-3.2-6.1-5.6c-1.3-1.9-0.9-3.5,1-4.8c0.3-0.2,0.6-0.3,0.9-0.5c1.3-0.6,1.6-0.5,2.6,0.6c1.5,1.8,3.1,3.5,4.7,5.3
		c0.3,0.3,0.6,0.6,1,0.9c0.6,0.4,1.1,0.3,1.3-0.5c0.2-0.6,0.2-1.3,0.2-1.9c-0.1-2.6-0.6-5.1-1.5-7.5c-0.5-1.2-0.4-1.4,0.8-1.9
		c1-0.4,2.1-0.9,3.1-1.3c1.1-0.4,1.8-0.2,2.1,0.9c0.3,1.1,0.5,2.3,0.6,3.5C333.3,148.1,333,149.2,332.9,149.7z"/>
	<path class="st0" d="M259.7,101.4c-1.8-0.3-3.5-1-4.4-2.9s-0.5-3.7,0.7-5.4c0.3-0.4,0.6-0.7,0.9-1.1c0.5-0.7,1-1.5,1.5-2.3
		c0.9-1.4,2.3-2.5,3.5-3.7c0.1-0.1,0.5-0.2,0.6-0.1c1.4,0.5,2.7,1,3.7,2.1c1.1,1.1,1.5,2.3,1.2,3.9c-0.5,2.5-1.4,4.8-2.9,6.9
		C263.4,100.4,261.9,101.4,259.7,101.4z M263,94.8c0-0.1,0-0.2,0-0.3c-0.1-1-1.6-2.5-2.7-2.6c-0.1,0-0.4,0.1-0.4,0.2
		c-0.7,1.3,0.3,3.5,1.8,3.8C262.3,96,263,95.5,263,94.8z"/>
	<path class="st0" d="M312.4,143.7c-0.1-0.2,0-0.5,0.1-0.8c0.3-0.6,0.9-1.2,1.3-1.7c1.2-1.5,2.4-3.1,3.7-4.5
		c2.3-2.6,4.7-5.1,7.1-7.7c0.5-0.5,1.1-1,1.7-1.3c0.7-0.3,1.5-0.5,2.3-0.5c0.9,0,1.2,0.5,0.8,1.3c-0.3,0.6-0.7,1.3-1.2,1.8
		c-3.6,4-7.1,8-10.7,12.1c-0.8,0.9-1.8,1.6-3.1,1.8C313.5,144.4,312.5,144,312.4,143.7z"/>
	<path class="st0" d="M292.5,89.6l8.7,0.8c0.2,0,0.3,0.2,0.1,0.4l-0.7,0.6c-0.6,0.5-1.3,0.7-2,0.6l-8.7-0.8c-0.2,0-0.3-0.2-0.1-0.4
		l0.6-0.5C291,89.8,291.8,89.5,292.5,89.6z"/>
	<path class="st0" d="M320,115.8l-2,0.6c-0.8,0.2-1.2,1-1,1.8l0.4,1.5c0.2,0.8,1,1.2,1.8,1l2-0.6c0.8-0.2,1.2-1,1-1.8l-0.4-1.5
		C321.5,116,320.7,115.5,320,115.8z"/>
	<path class="st0" d="M308.2,109l-2,0.4c-0.8,0.2-1.3,0.9-1.1,1.7l0.3,1.6c0.2,0.8,0.9,1.3,1.7,1.1l2-0.4c0.8-0.2,1.3-0.9,1.1-1.7
		l-0.3-1.6C309.7,109.3,308.9,108.8,308.2,109z"/>
	<path class="st0" d="M303.9,105.4l-2,0.4c-0.8,0.2-1.3,0.9-1.1,1.7l0.3,1.6c0.2,0.8,0.9,1.3,1.7,1.1l2-0.4c0.8-0.2,1.3-0.9,1.1-1.7
		l-0.3-1.6C305.5,105.8,304.7,105.3,303.9,105.4z"/>
	<path class="st0" d="M224.6,71.1l-1.7-1.1c-0.7-0.4-1.5-0.2-2,0.4l-0.9,1.3c-0.4,0.7-0.2,1.5,0.4,2l1.7,1.1c0.7,0.4,1.5,0.2,2-0.4
		l0.9-1.3C225.5,72.4,225.3,71.6,224.6,71.1z"/>
	<path class="st0" d="M309.3,103.2l-2,0.4c-0.8,0.2-1.3,0.9-1.1,1.7l0.3,1.6c0.2,0.8,0.9,1.3,1.7,1.1l2-0.4c0.8-0.2,1.3-0.9,1.1-1.7
		l-0.3-1.6C310.8,103.5,310,103,309.3,103.2z"/>
	<path class="st0" d="M143,91.5l1.9,0.7c0.7,0.3,1.1,1.1,0.8,1.8l-0.6,1.5c-0.3,0.7-1.1,1.1-1.8,0.8l-1.9-0.7
		c-0.7-0.3-1.1-1.1-0.8-1.8l0.6-1.5C141.4,91.6,142.2,91.2,143,91.5z"/>
	<path class="st0" d="M147.6,88.6l1.9,0.7c0.7,0.3,1.1,1.1,0.8,1.8l-0.6,1.5c-0.3,0.7-1.1,1.1-1.8,0.8l-1.9-0.7
		c-0.7-0.3-1.1-1.1-0.8-1.8l0.6-1.5C146.1,88.7,146.9,88.4,147.6,88.6z"/>
	<path class="st0" d="M192.5,70.2l1.5,1.4c0.6,0.5,0.6,1.4,0.1,2l-1.1,1.2c-0.5,0.6-1.4,0.6-2,0.1l-1.5-1.4c-0.6-0.5-0.6-1.4-0.1-2
		l1.1-1.2C191.1,69.7,191.9,69.6,192.5,70.2z"/>
	<path class="st0" d="M197.9,69.3l1.5,1.4c0.6,0.5,0.6,1.4,0.1,2l-1.1,1.2c-0.5,0.6-1.4,0.6-2,0.1l-1.5-1.4c-0.6-0.5-0.6-1.4-0.1-2
		l1.1-1.2C196.5,68.8,197.4,68.8,197.9,69.3z"/>
	<path class="st0" d="M123.9,140.3l2.1-0.1c0.8-0.1,1.5,0.5,1.5,1.3l0.1,1.6c0.1,0.8-0.5,1.5-1.3,1.5l-2.1,0.1
		c-0.8,0.1-1.5-0.5-1.5-1.3l-0.1-1.6C122.6,141,123.2,140.4,123.9,140.3z"/>
	<path class="st0" d="M127.1,135.8l2.1-0.1c0.8-0.1,1.5,0.5,1.5,1.3l0.1,1.6c0.1,0.8-0.5,1.5-1.3,1.5l-2.1,0.1
		c-0.8,0.1-1.5-0.5-1.5-1.3l-0.1-1.6C125.7,136.5,126.3,135.8,127.1,135.8z"/>
	<path class="st0" d="M100.1,132.6l2.1-0.1c0.8-0.1,1.5,0.5,1.5,1.3l0.1,1.6c0.1,0.8-0.5,1.5-1.3,1.5l-2.1,0.1
		c-0.8,0.1-1.5-0.5-1.5-1.3l-0.1-1.6C98.7,133.3,99.3,132.6,100.1,132.6z"/>
	<path class="st0" d="M142.7,85.6l1.9,0.7c0.7,0.3,1.1,1.1,0.8,1.8l-0.6,1.5c-0.3,0.7-1.1,1.1-1.8,0.8l-1.9-0.7
		c-0.7-0.3-1.1-1.1-0.8-1.8l0.6-1.5C141.2,85.7,142,85.3,142.7,85.6z"/>
</g>
<g id="mark">
	<path class="st0" d="M212.6,321.3l-17.7,21.3c9.8,0,17.7,7.9,17.7,17.7c0-9.8,7.9-17.7,17.7-17.7L212.6,321.3z"/>
	<circle class="st0" cx="212.6" cy="303.6" r="10.6"/>
	<g>
		<path class="st0" d="M230.3,313.2v21.3h60.3v-7.1c0-19.6-15.9-35.4-35.4-35.4h-24.8v14.2h28.3c2,0,3.7,0.8,5,2.1
			c1.3,1.3,2.1,3,2.1,5L230.3,313.2L230.3,313.2z"/>
		<path class="st0" d="M194.9,313.2v21.3h-60.3v-7.1c0-19.6,15.9-35.4,35.4-35.4h24.8v14.2h-28.4c-2,0-3.7,0.8-5,2.1
			c-1.3,1.3-2.1,3-2.1,5L194.9,313.2L194.9,313.2z"/>
	</g>
	<g>
		<path class="st0" d="M276.1,290.4c4.8,2.7,9,6.3,12.3,10.6c1.7-17.8,16.7-31.8,34.9-31.8h24.5c-1.5-5-3.6-9.8-6.3-14.2h-18.2
			C301,255.1,282.1,270,276.1,290.4z"/>
		<path class="st0" d="M149.1,290.4c-4.8,2.7-8.9,6.3-12.3,10.6c-1.7-17.8-16.7-31.8-34.9-31.8H77.3c1.4-5,3.6-9.8,6.3-14.2h18.2
			C124.2,255.1,143.1,270,149.1,290.4z"/>
	</g>
	<g>
		<path class="st0" d="M282.7,239.6c-0.6,0-1.1,0.1-1.6,0.4H281c-17,8.8-29.2,25.3-32.1,44.9h-11.5c0-31.1,25.2-56.4,56.4-56.4
			c8.6,0,16.8,1.9,24.1,5.4c7.1,3.4,13.4,8.1,18.5,14l0,0h-13c-25.2,0-46.6,16.6-53.8,39.4c-4.2-1.5-8.8-2.4-13.5-2.5
			c2.8-16.8,13.5-30.9,28.1-38.5c0.1-0.1,0.3-0.1,0.4-0.2c1.1-0.6,1.8-1.8,1.8-3.1C286.3,241.1,284.7,239.6,282.7,239.6z"/>
		<path class="st0" d="M142.5,239.6c0.6,0,1.1,0.1,1.6,0.4h0.1c17,8.8,29.2,25.3,32.2,44.9h11.5c0-31.1-25.2-56.4-56.4-56.4
			c-8.6,0-16.8,1.9-24.1,5.4c-7.1,3.4-13.4,8.1-18.4,14l0,0h13c25.2,0,46.6,16.6,53.8,39.4c4.2-1.5,8.8-2.4,13.6-2.5
			c-2.8-16.8-13.4-30.9-28.1-38.5c-0.1-0.1-0.3-0.1-0.4-0.2c-1.1-0.6-1.8-1.8-1.8-3.1C138.9,241.1,140.5,239.6,142.5,239.6z"/>
	</g>
	<g>
		<path class="st0" d="M287,185.7v36.1c2.2-0.2,4.5-0.4,6.8-0.4c2.5,0,5,0.1,7.4,0.4v-50.4c-3.9,0-7.5,1.6-10,4.1
			C288.6,178.2,287,181.8,287,185.7z"/>
		<path class="st0" d="M138.2,185.7v36.1c-2.2-0.2-4.5-0.4-6.8-0.4c-2.5,0-5,0.1-7.4,0.4v-50.4c3.9,0,7.5,1.6,10,4.1
			C136.6,178.2,138.2,181.8,138.2,185.7z"/>
	</g>
	<g>
		<path class="st0" d="M237.4,177.5v78.2c3.6-6.9,8.4-13.1,14.2-18.3v-46.7c0-1,0.4-1.9,1-2.5s1.5-1,2.5-1c1.9,0,3.5,1.6,3.5,3.5
			V232c6.4-4.2,13.6-7.4,21.3-9.1v-58.6c0-4.9,2-9.3,5.2-12.5c1.4-1.4,3.1-2.6,5-3.5c-5.3-3.3-11.5-5.2-18.3-5.2
			c-9.5,0-18.1,3.9-24.4,10.1C241.2,159.4,237.4,168,237.4,177.5z"/>
		<path class="st0" d="M187.8,177.5v78.2c-3.6-6.9-8.4-13.1-14.2-18.3v-46.7c0-1-0.4-1.9-1-2.5s-1.5-1-2.5-1c-1.9,0-3.5,1.6-3.5,3.5
			V232c-6.4-4.2-13.6-7.4-21.3-9.1v-58.6c0-4.9-2-9.3-5.2-12.5c-1.4-1.4-3.1-2.6-5-3.5c5.3-3.3,11.6-5.2,18.3-5.2
			c9.5,0,18.1,3.9,24.4,10.1C184,159.4,187.8,168,187.8,177.5z"/>
	</g>
	<g>
		<path class="st0" d="M216.1,164.4v120.5h14.2V162c0-11.7,4.8-22.4,12.4-30.1c4.4-4.4,9.9-7.9,15.9-10c-11.7,0-22.4,4.8-30.1,12.4
			C220.9,142.1,216.1,152.7,216.1,164.4z"/>
		<path class="st0" d="M209.1,164.4v120.5h-14.2V162c0-11.7-4.8-22.4-12.4-30.1c-4.4-4.4-9.9-7.9-15.9-10c11.7,0,22.4,4.8,30.1,12.4
			C204.3,142.1,209.1,152.7,209.1,164.4z"/>
	</g>
	<path class="st0" d="M235.6,114.8c-7.3,0-14,3-18.8,7.8c-1.6,1.7-3.1,3.5-4.2,5.5c-1.2-2-2.6-3.9-4.2-5.5
		c-4.8-4.8-11.4-7.8-18.8-7.8c-3.4,0-6.7,0.6-9.7,1.8c8.3,2.3,15.8,6.8,21.7,12.7c4.7,4.7,8.5,10.3,11,16.6
		c2.5-6.3,6.3-11.9,11-16.6c5.9-5.9,13.4-10.4,21.7-12.7C242.3,115.5,239,114.8,235.6,114.8z"/>
	<path class="st0" d="M212.6,103.3c-5.9,0-10.6,4.8-10.6,10.6l0,0c3.3,1.5,6.3,3.6,8.9,6.1c0.6,0.6,1.2,1.2,1.7,1.9
		c0.5-0.7,1.1-1.3,1.7-1.9c2.6-2.6,5.6-4.7,8.9-6.1l0,0C223.2,108.1,218.5,103.3,212.6,103.3z"/>
</g>
</svg>
